<?xml version="1.0" standalone="no"?><!DOCTYPE svg PUBLIC "-//W3C//DTD SVG 1.1//EN" "http://www.w3.org/Graphics/SVG/1.1/DTD/svg11.dtd"><svg class="icon" width="200px" height="200.00px" viewBox="0 0 1024 1024" version="1.1" xmlns="http://www.w3.org/2000/svg"><path fill="#ffffff" d="M894.91197 513.709945c0-33.604352-78.328973-62.839187-194.192817-78.305437 70.981634-92.947925 105.664551-169.093163 81.875752-192.829773-23.763217-23.789823-99.884918 10.891048-192.832843 81.899288-15.489786-115.863844-44.701085-194.219423-78.302367-194.219423-33.654494 0-62.892399 78.252225-78.434373 194.116069-92.921319-70.955028-168.964226-105.585757-192.703907-81.795934-23.789823 23.736611 10.9197 99.832729 81.875752 192.727443-115.913986 15.518438-194.192817 44.753273-194.192817 78.407768s78.328973 62.839187 194.192817 78.355579c-71.00824 92.897783-105.691157 168.990832-81.875752 192.779631 23.763217 23.789823 99.884918-10.891048 192.806237-81.899288 15.491833 115.860774 44.677549 194.219423 78.332043 194.219423 33.602306 0 62.889329-78.305437 78.381162-194.116069 92.894713 70.904886 168.990832 105.585757 192.754049 81.795934 23.788799-23.736611-10.917654-99.779517-81.875752-192.727443C816.609603 576.599274 894.91197 547.311227 894.91197 513.709945zM707.835224 316.665173c17.159822 17.107633 3.699252 61.040215-31.060413 115.758444-24.583908-2.723018-50.430576-4.982478-77.584006-6.471388-1.515516-27.541263-3.774977-53.745065-6.603395-78.613452C647.052882 312.811402 690.751127 299.555493 707.835224 316.665173zM600.784092 551.422871c8.528234-8.94165 16.851806-17.828041 24.944112-26.717502 14.873756 17.983583 28.774347 35.709293 40.333614 52.510958-20.296255 3.748371-42.569538 6.729262-66.151629 8.886391C600.450495 574.85249 600.474031 562.982138 600.784092 551.422871zM601.297792 530.049075c0.076748-5.550413 0.410346-10.738575 0.410346-16.33913 0-5.960759-0.152473-11.714809-0.231267-17.573237 5.216815 5.806239 9.633405 11.406794 14.542204 17.10968C611.214652 518.846942 606.332459 524.44852 601.297792 530.049075zM436.366416 566.016241c3.774977 3.853771 7.397481 7.655354 11.277858 11.509125 3.853771 3.853771 7.705496 7.449669 11.585873 11.251252-7.29515-0.410346-14.411221-0.873903-21.450545-1.38658C437.262832 580.350714 436.776761 573.260226 436.366416 566.016241zM439.08841 602.340541c11.585873 0.515746 23.326265 0.926092 35.298947 1.183965 8.707312 8.323573 17.288758 15.876596 25.946952 23.789823-17.983583 14.950504-35.605939 28.361955-52.408627 39.97341C444.276572 647.298476 441.24554 625.514333 439.08841 602.340541zM495.580029 603.77931c5.293563 0.052189 10.532891 0.205685 15.878642 0.205685 5.573949 0 10.788717-0.308015 16.260335-0.410346-5.395894 4.882194-10.765181 9.606799-16.158005 14.232143C506.268462 613.181447 500.92578 608.609315 495.580029 603.77931zM511.35634 590.163197c-10.532891 0-20.914332-0.152473-31.113625-0.512676-7.68196-7.142677-15.284101-14.284331-22.939455-21.939685-7.502881-7.499811-14.747889-15.052834-21.810748-22.555715-0.333598-10.378371-0.515746-20.86112-0.515746-31.547507 0-11.20111 0.310062-22.145369 0.694825-32.936133 6.78145-7.245008 13.745049-14.486946 20.964474-21.681812 7.603165-7.603165 15.260565-14.950504 22.889313-22.092158 10.480702-0.360204 21.013593-0.668219 31.830963-0.668219 10.738575 0 21.348214 0.254803 31.778774 0.565888 7.68196 7.192819 15.360849 14.384615 23.01825 22.092158 7.655354 7.605212 15.029298 15.260565 22.195511 22.968108 0.333598 10.428513 0.565888 21.013593 0.565888 31.752168 0 10.43056-0.308015 20.551058-0.641613 30.621415-7.373944 7.863085-14.926968 15.776312-22.813588 23.636327-7.449669 7.449669-14.95255 14.642488-22.426779 21.681812C532.602224 589.907371 522.094916 590.163197 511.35634 590.163197zM421.208181 513.709945c0 5.446036 0.102331 10.738575 0.155543 16.081257-5.163603-5.753027-9.583263-11.353582-14.490016-17.10968 4.777817-5.600555 9.710153-11.20111 14.771425-16.799618C421.541779 501.942947 421.208181 507.59569 421.208181 513.709945zM422.826028 586.103742c-23.63428-2.157129-45.702901-5.240351-66.049299-9.041934 11.688203-16.95516 25.252127-34.733059 40.383756-52.921303 8.094352 8.939603 15.876596 17.777899 24.483624 26.76969C421.901982 562.829665 422.312328 574.594617 422.826028 586.103742zM422.134273 476.048183c-8.326643 8.68173-16.365736 17.365506-24.252357 25.996071-15.002692-18.136056-29.006637-35.967166-40.641629-52.869115 20.216437-3.751441 42.311665-6.732331 65.791425-8.889461C422.465824 451.845968 422.441265 464.126666 422.134273 476.048183zM587.528184 462.482213c-4.086062-4.211928-8.068769-8.373715-12.280698-12.58769-4.213975-4.211928-8.402367-8.16803-12.590759-12.279674 7.939833 0.410346 15.724123 0.926092 23.379477 1.541099C586.655304 446.76116 587.141374 454.568986 587.528184 462.482213zM584.803119 425.181679c-11.892865-0.565888-23.967878-0.978281-36.248575-1.286296-8.965186-8.578376-17.777899-16.286941-26.717502-24.40483 18.470677-15.362896 36.582173-29.184693 53.795207-41.001833C579.48602 378.988614 582.569242 401.289526 584.803119 425.181679zM528.926508 423.689698c-5.831822-0.102331-11.559267-0.205685-17.467837-0.205685-6.089695 0-11.766998 0.308015-17.804505 0.410346 5.935176-5.342682 11.843746-10.532891 17.752316-15.568581C517.186116 413.311327 523.044544 418.347017 528.926508 423.689698zM601.271186 476.508671c-0.281409-12.227486-0.718361-24.302499-1.284249-36.22197 23.505343 2.209318 45.471634 5.240351 65.691141 8.991792-11.714809 17.057491-25.409716 34.990932-40.618093 53.28253C617.147782 493.877247 609.621365 485.245659 601.271186 476.508671zM511.919159 235.329726c24.150026 0 45.600571 40.383756 59.705823 103.375415-19.628036 15.620769-39.820937 32.67826-60.398602 51.075259-20.063965-18.035772-39.975457-35.195593-59.243289-50.559513C466.113927 275.918143 487.693408 235.329726 511.919159 235.329726zM447.951265 358.951255c16.905018 11.611455 34.630728 25.278733 52.690036 40.333614-8.889461 8.117888-17.801435 16.441461-26.793226 25.022906-11.587919 0.308015-23.508413 0.308015-34.759665 0.820692C441.272145 401.544329 444.199825 379.194298 447.951265 358.951255zM460.07642 437.769368c-4.13518 4.059456-8.271384 8.015557-12.406564 12.125155-3.777023 3.801583-7.373944 7.553023-11.072173 11.356652 0.410346-7.452739 0.77055-14.95255 1.333368-22.197558C445.125917 438.487729 452.652334 438.179714 460.07642 437.769368zM314.927599 316.50963c17.084097-17.057491 60.83453-3.801583 115.321492 30.726815-2.825348 24.868387-5.059226 51.224662-6.626931 78.715783-27.077705 1.488911-52.974515 3.64604-77.481675 6.421246C311.328631 377.653199 297.791313 333.620333 314.927599 316.50963zM233.05287 513.246387c0-24.200168 40.307008-45.676295 103.249549-59.806107 15.516392 19.472494 32.907481 39.665395 51.17452 60.114123-18.188244 20.246113-34.964326 40.181141-50.40397 59.551304C273.744641 558.975894 233.076406 537.446555 233.05287 513.246387zM314.233797 710.241017c-17.057491-17.10968-3.778046-60.83453 30.80254-115.351168 24.868387 2.828418 51.122331 5.087878 78.662571 6.628978 1.49198 27.127847 3.751441 52.974515 6.500041 77.531817C375.428531 713.890126 331.393619 727.350696 314.233797 710.241017zM511.919159 791.93769c-24.173562 0-45.702901-40.644699-59.753919-103.84102 19.343557-15.46625 39.228443-32.267914 59.521628-50.40397 20.37505 18.238386 40.541345 35.605939 60.013839 51.122331C557.572942 751.706407 536.069185 791.93769 511.919159 791.93769zM575.940265 667.954935c-16.928554-11.611455-34.759665-25.38311-52.895721-40.489156 8.631588-7.913227 17.315364-16.031115 26.049283-24.354688 11.895935-0.308015 24.12342-0.308015 35.684734-0.820692C582.595848 625.668853 579.691705 647.812175 575.940265 667.954935zM563.970652 588.570933c3.774977-3.699252 7.553023-7.245008 11.301394-11.04659 4.111644-4.111644 8.015557-8.1711 12.048407-12.279674-0.410346 7.347339-0.744967 14.84715-1.309832 22.043039C578.844407 587.853595 571.368132 588.160587 563.970652 588.570933zM708.503443 710.085474c-17.084097 17.10968-61.040215 3.701299-115.734908-31.03483 2.77316-24.557302 4.958942-50.506301 6.447852-77.584006 27.488051-1.488911 53.745065-3.699252 78.586846-6.5246C712.254883 649.353274 725.58754 693.027983 708.503443 710.085474zM685.895539 573.157895c-15.337313-19.269879-32.473599-39.152718-50.430576-59.243289 18.393929-20.551058 35.427884-40.74396 51.022047-60.371996 62.862723 14.0766 103.172801 35.553751 103.172801 59.703777C789.68437 537.446555 749.171678 559.026036 685.895539 573.157895z" /></svg>