<?xml version="1.0" standalone="no"?><!DOCTYPE svg PUBLIC "-//W3C//DTD SVG 1.1//EN" "http://www.w3.org/Graphics/SVG/1.1/DTD/svg11.dtd"><svg class="icon" width="200px" height="200.00px" viewBox="0 0 1024 1024" version="1.1" xmlns="http://www.w3.org/2000/svg"><path d="M938.77 911h-854A78.88 78.88 0 0 1 6 832.2v-640a78.88 78.88 0 0 1 78.79-78.79h854a78.87 78.87 0 0 1 78.79 78.79v640a78.87 78.87 0 0 1-78.81 78.8z m-854-736.07a17.53 17.53 0 0 0-17.3 17.3v640a17.53 17.53 0 0 0 17.3 17.29h854a17.53 17.53 0 0 0 17.3-17.29v-640a17.53 17.53 0 0 0-17.3-17.3z" fill="#333333" /><path d="M512.38 612.78a87.54 87.54 0 0 1-58.6-21.91l-429-333.95 42.68-47.69 429 333.95c8.33 7.45 23.51 7.45 31.84 0l429-333.95 42.7 47.69-429 334a87.54 87.54 0 0 1-58.62 21.86z" fill="#333333" /></svg>